<svg width="48" height="49" viewBox="0 0 48 49" fill="none" xmlns="http://www.w3.org/2000/svg">
<path d="M28.1071 0.721275C26.3312 1.24253 25.3675 1.67377 23.9403 2.57753C22.8711 3.25628 22.4214 3.46252 22.0038 3.46252C21.9258 3.46252 21.6872 3.42128 21.4761 3.37253C20.9484 3.24878 19.7002 3.06503 18.9981 3.00878C17.9151 2.92628 16.3686 3.00878 15.1021 3.21878C14.3633 3.34253 14.0604 3.36502 13.7943 3.31253C13.6474 3.28628 13.2987 3.13253 12.7847 2.87378C11.0363 1.98128 9.19159 1.30627 7.43863 0.916275L7.09905 0.841278L7.13117 1.16753C7.34685 3.43628 8.01683 5.43128 8.94838 6.57878L9.13193 6.80378L9.01721 7.04753C8.84283 7.42628 8.59044 8.19878 8.4849 8.69378C8.4023 9.05753 8.38394 9.29753 8.37935 9.93128C8.37935 10.73 8.42983 11.12 8.60421 11.585C8.72352 11.9075 8.83824 11.8813 7.33308 11.87C5.81415 11.855 4.13461 11.9075 2.62945 12.0125C1.64283 12.0838 0.041303 12.2338 0.00459174 12.26C-0.00458608 12.2675 2.8293e-06 12.2938 0.0137696 12.3238C0.0321252 12.365 0.13767 12.3613 0.647039 12.3088C2.83136 12.0725 6.21798 11.93 7.9893 11.9938L8.75564 12.02L8.92085 12.3463C9.01262 12.5225 9.17323 12.8 9.28796 12.9575L9.48528 13.2463L9.32008 13.265C9.2283 13.2763 8.8979 13.3138 8.58127 13.3438C6.22715 13.5875 3.61606 14.03 1.67037 14.525C0.780118 14.7463 0.596561 14.81 0.596561 14.8813C0.596561 14.9113 0.60115 14.9375 0.610328 14.9375C0.619506 14.9375 0.871896 14.87 1.17017 14.7875C2.39083 14.45 3.7675 14.1575 5.30019 13.91C6.56673 13.7038 7.19541 13.625 9.38891 13.3813L9.57706 13.3588L9.84322 13.6475C9.98547 13.805 10.247 14.0563 10.4214 14.2063L10.7381 14.4763L10.1966 14.6375C8.9805 15.0013 7.22295 15.6763 6.14914 16.1938C5.32773 16.5875 4.45125 17.075 4.45125 17.135C4.45125 17.165 4.4696 17.1875 4.49255 17.1875C4.5109 17.1875 4.80918 17.0375 5.14417 16.8538C6.69981 16.01 8.54914 15.2563 10.449 14.69L10.8757 14.5663L11.3025 14.9188C12.2845 15.725 12.6195 16.3438 12.6195 17.3638C12.6195 18.3388 12.3763 19.4038 11.6834 21.4625C11.3621 22.415 11.1143 23.2625 10.9675 23.9075C10.247 27.0388 10.4719 29.7313 11.6971 32.75C12.1055 33.7475 12.4084 34.3663 13.1289 35.6825C14.3862 37.9738 14.5514 38.4088 14.7533 39.98C14.8543 40.7488 14.9186 42.5413 14.9048 44L14.891 45.2938L14.4872 45.32C13.987 45.35 13.4226 45.44 13.1564 45.5338C12.8535 45.6388 12.647 45.8075 12.5002 46.07C12.3809 46.28 12.3671 46.3475 12.3671 46.6625C12.3671 46.94 12.3855 47.0488 12.4543 47.1463C12.7618 47.6075 13.6337 47.8813 15.2581 48.0275C21.2696 48.5638 27.2031 48.6388 32.9943 48.2563C36.1331 48.0463 40.1438 47.6225 40.7036 47.4388C42.3052 46.91 43.7782 44.675 44.9484 40.985C45.7973 38.315 46.5729 34.5613 46.6509 32.7313C46.761 30.2938 45.8891 27.95 44.0398 25.6813C43.0899 24.5188 42.4061 23.8663 40.3365 22.1563C38.1476 20.345 37.4409 19.6738 36.6425 18.65C35.9862 17.81 35.3897 16.6363 35.2153 15.8488C35.0547 15.1063 35.0868 14.1238 35.2979 13.325C35.5136 12.4963 35.9633 11.6563 36.5002 11.0713C37.4317 10.0625 39.0424 9.24878 40.7036 8.95253C41.0065 8.89628 41.2772 8.88128 41.8968 8.88503C42.6172 8.88503 42.7457 8.89628 43.1541 8.98627C44.2004 9.21503 44.8015 9.58628 44.9254 10.0813C45.0447 10.5463 44.673 11.1425 44.0535 11.48C43.434 11.8213 42.7778 11.8888 41.9243 11.7013C41.3231 11.57 41.0845 11.5475 40.8413 11.6C40.4971 11.6713 40.3136 11.795 40.153 12.065C40.0153 12.2938 40.0061 12.3313 40.0245 12.605C40.052 12.9688 40.1897 13.1975 40.5706 13.4975C40.8964 13.7488 41.5296 14.0038 42.0436 14.09C42.4979 14.165 43.2046 14.165 43.6864 14.09C44.9117 13.9025 46.3526 13.175 47.0685 12.3875C48.0275 11.3338 48.2616 9.86378 47.6788 8.58878C47.3576 7.89128 46.2516 6.97253 45.2696 6.59003C44.3243 6.22253 42.5484 6.06503 41.0249 6.21878C38.5055 6.47378 36.2478 7.33628 34.6004 8.67128C33.4853 9.57878 32.7419 10.5163 32.3243 11.555L32.1545 11.9788L31.8975 11.9563C31.278 11.9075 29.6673 11.8625 28.4421 11.8625C27.1985 11.8625 27.1159 11.8588 27.1388 11.795C27.3407 11.2325 27.4142 10.7675 27.4142 10.0813C27.4142 9.16628 27.2627 8.54378 26.8222 7.64378L26.6203 7.23503L26.8451 6.98753C28.0015 5.70502 28.7082 4.30627 28.9377 2.85128C29.0386 2.19128 28.9927 0.496277 28.8688 0.500027C28.8551 0.503777 28.5109 0.601276 28.1071 0.721275ZM31.3606 12.05C31.7644 12.0725 32.0994 12.0913 32.104 12.0988C32.1086 12.1025 32.0765 12.2563 32.026 12.4438C31.9113 12.89 31.8012 13.5875 31.8012 13.8575C31.8012 13.9775 31.7874 14.075 31.7736 14.075C31.7599 14.075 31.4845 14.0263 31.1679 13.9663C30.0161 13.7488 28.4467 13.52 27.1664 13.3813C26.8497 13.3475 26.5469 13.3138 26.4918 13.3025C26.3954 13.2875 26.4 13.2725 26.6386 12.8638C26.7717 12.635 26.9186 12.3463 26.9644 12.23C27.047 12.0313 27.0608 12.0163 27.2122 11.9975C27.4738 11.9713 30.5713 12.0088 31.3606 12.05ZM28.5889 13.685C29.3828 13.79 30.3786 13.9513 31.6451 14.1763C31.7369 14.195 31.7415 14.225 31.7736 14.7988C31.8975 17.1275 32.5859 18.71 34.449 20.9863C35.6099 22.4038 37.1105 23.8663 39.1434 25.5688C40.3962 26.615 40.7174 26.9075 41.1533 27.3838C42.2455 28.565 42.9293 29.8288 43.2321 31.205C43.5625 32.7275 43.3973 35.1238 42.787 37.625C42.0528 40.64 40.6027 43.61 39.5335 44.27C39.1159 44.5288 38.634 44.5813 38.2256 44.4125C37.6474 44.1688 37.5189 43.5875 37.7163 42.1438C37.7713 41.75 37.886 40.9513 37.9732 40.3625C38.2577 38.4013 38.3174 37.775 38.3174 36.7813C38.3174 34.3775 37.6933 32.3975 36.1423 29.8663C34.5637 27.29 33.4256 26.03 30.7319 23.8775C29.3874 22.8013 28.7771 22.3513 27.4233 21.4288C26.7671 20.9788 26.0604 20.4875 25.8631 20.3338C24.7618 19.4938 24.2157 18.4138 24.1514 16.9625C24.1331 16.535 24.1423 16.3663 24.2019 16.175C24.2983 15.8525 24.5369 15.4775 24.8811 15.095C25.1289 14.8138 25.1748 14.7838 25.2803 14.7988C25.4914 14.8363 26.8451 15.3088 27.6482 15.6313C28.5981 16.01 29.3644 16.3663 30.2363 16.8388C30.7273 17.105 30.9063 17.1838 30.943 17.1538C30.9797 17.1238 30.9797 17.1013 30.9522 17.0825C29.2818 16.1375 27.2398 15.2525 25.574 14.7538C25.3904 14.6975 25.2987 14.6525 25.317 14.6225C25.3354 14.6 25.5052 14.3938 25.7025 14.1688C25.8952 13.94 26.1063 13.6775 26.1751 13.5838L26.2945 13.4113L26.9507 13.4825C27.3086 13.52 28.0474 13.61 28.5889 13.685Z" fill="#55473A"/>
</svg>
