<svg width="48" height="49" viewBox="0 0 48 49" fill="none" xmlns="http://www.w3.org/2000/svg">
<path d="M0.988395 0.552502C0.901023 0.623753 0.933787 0.841251 1.07031 1.1225C1.11945 1.22375 1.40341 1.64 1.70375 2.0525C1.99863 2.46125 2.23891 2.8025 2.22799 2.80625C2.21706 2.81375 1.98225 2.83625 1.69829 2.85875C1.09761 2.90375 0.895562 2.97125 0.988395 3.095C1.09215 3.22625 1.93857 3.75875 2.45188 4.01C2.4628 4.0175 2.33174 4.35125 2.16792 4.7525C1.99863 5.15375 1.81843 5.62625 1.76382 5.79875C1.67645 6.10625 1.67645 6.12875 1.76928 6.41375C1.82389 6.575 2.02048 7.01 2.20068 7.38125L2.53379 8.05625V8.645L2.53925 9.23375L2.75768 9.39125C2.87781 9.4775 3.27099 9.68 3.6314 9.845L4.28669 10.145L4.99659 10.1188C6.01775 10.0812 6.64027 9.92 8.38225 9.23375C9.15222 8.93375 9.58908 8.81375 10.3754 8.69C11.129 8.57375 11.5167 8.57 11.6751 8.68625C11.9427 8.88125 12.1283 9.2975 12.2321 9.9125C12.2648 10.1075 12.3795 10.5387 12.4778 10.8688C12.7017 11.5662 12.7017 11.5963 12.5652 11.8662C12.456 12.0838 12.1939 12.4625 12.1502 12.4625C12.1338 12.4625 11.9099 12.4025 11.6532 12.3275C11.3911 12.2525 10.9379 12.1362 10.6375 12.065C10.2608 11.975 9.78567 11.81 9.043 11.5025L7.97816 11.0713L6.65119 10.8463C4.31945 10.4487 2.88328 10.2687 2.3099 10.295C1.56177 10.3325 0.453241 10.8388 0.109214 11.3C-0.120138 11.6075 0.0436849 11.9338 0.611603 12.2975C1.25051 12.7062 1.49078 12.7438 2.8942 12.6275C3.75153 12.56 3.94266 12.5788 4.31945 12.7738C4.50512 12.875 4.63618 12.905 4.89829 12.9275C5.46075 12.9725 6.08328 13.145 6.61843 13.4075C6.76041 13.4788 7.17543 13.7188 7.53584 13.9438C7.90171 14.1725 8.42594 14.4613 8.69898 14.5925C10.1898 15.3013 13.7666 16.64 14.4109 16.7338C14.7222 16.7788 15.3502 16.7338 16.2457 16.61C16.6061 16.5575 16.9174 16.5275 16.9392 16.5425C16.9775 16.5688 17.5181 18.2263 17.6601 18.7588C17.7092 18.9313 17.7474 19.2013 17.7474 19.3588C17.7474 19.7825 17.5672 20.8025 17.3379 21.6688C17.2942 21.8337 17.1741 22.2987 17.0703 22.7C16.9666 23.1012 16.841 23.6825 16.7918 23.9937C16.6334 24.9875 16.6225 24.9988 15.727 25.085C14.8969 25.1637 14.5311 25.2838 13.9795 25.6625C13.2642 26.1462 12.8983 26.6788 13.0457 27.0125C13.1386 27.2225 13.428 27.4363 13.7775 27.5413C14.0505 27.6275 14.1051 27.6313 15.4266 27.6275C16.5079 27.6275 16.972 27.6088 17.6655 27.545L18.5392 27.4625L19.6587 27.545C20.7509 27.6238 21.0184 27.6275 30.3891 27.6462L40 27.6688L40.3167 27.7738C41.5618 28.1938 42.8614 29.7688 43.3966 31.5013C43.6696 32.3862 43.5823 33.4925 43.1126 35.21C42.5229 37.37 41.3597 40.1188 40.5133 41.3637C39.1427 43.3775 36.4997 45.1475 34.2225 45.575C32.8519 45.8338 31.0771 45.7925 29.4608 45.4663C29.1604 45.4062 28.4833 45.2525 27.959 45.125C25.8075 44.6 25.2505 44.5138 24.6007 44.5925C24.142 44.6525 23.9017 44.7238 23.6396 44.8888C23.3283 45.08 23.1973 45.2788 23.1645 45.5938C23.1208 46.0588 23.3447 46.5275 23.7816 46.8763C24.4587 47.42 27.9099 48.155 31.099 48.4288C31.8198 48.4925 34.1843 48.4925 34.7577 48.4288C37.2478 48.1587 39.0061 47.5025 40.9283 46.1337C43.0253 44.6375 44.871 42.3388 46.2526 39.5C47.0935 37.7788 47.6014 36.2263 47.8744 34.5688C47.9891 33.8488 48.0055 32.0375 47.9017 31.3625C47.585 29.3638 46.7768 27.5825 45.1659 25.3588C43.9263 23.6562 43.7297 23.0188 43.7133 20.6938C43.7024 19.3625 43.6915 19.2275 43.5604 18.6425C42.7959 15.2825 40.6007 12.2188 37.3788 10.0063C35.4075 8.65625 32.0218 7.025 28.6143 5.79125C26.9379 5.18 25.4635 4.71875 23.2683 4.11875C22.5529 3.92 21.701 3.6575 21.3734 3.53C19.9918 2.9975 16.0601 1.71875 15.4812 1.61375C14.4218 1.41875 10.6648 1.02875 9.55631 0.998753C8.76997 0.97625 8.31672 1.00625 7.10444 1.15625C6.70034 1.20875 6.22526 1.25 6.05051 1.25C5.82662 1.25 5.11672 1.14125 3.68055 0.893749C1.39795 0.49625 1.09761 0.458752 0.988395 0.552502ZM22.4164 21.1888C22.4765 21.4175 22.8041 21.9425 23.1754 22.4075C23.4976 22.8088 23.9126 23.2513 24.6389 23.9675C24.972 24.2975 25.0266 24.4775 24.8355 24.5975C24.77 24.6425 24.4041 24.7625 24.0273 24.8675C23.6505 24.9688 23.0771 25.1375 22.744 25.235L22.1433 25.4188L21.4881 25.4225C21.0512 25.4263 20.7672 25.4488 20.6416 25.4862C20.3795 25.5613 20.0846 25.5913 19.9973 25.5538C19.899 25.5125 20.2922 24.8 20.8874 23.9375C21.1386 23.5775 21.4444 23.0788 21.5645 22.8313C21.8048 22.3288 22.2799 21.1625 22.2799 21.0688C22.2799 20.96 22.3782 21.0463 22.4164 21.1888Z" fill="#55473A"/>
</svg>
