<svg width="48" height="49" viewBox="0 0 48 49" fill="none" xmlns="http://www.w3.org/2000/svg">
<path d="M36.4207 0.545034C36.2897 0.563784 36.0207 0.668782 35.8138 0.781282C35.5172 0.946283 35.3517 1.08878 34.9862 1.50128C34.7379 1.78628 34.3379 2.24003 34.1035 2.51003C33.1103 3.64254 31.9793 4.32129 30.3793 4.75254C30.0414 4.84629 29.5172 4.95878 29.2138 5.00753C28.7172 5.08628 28.6414 5.11253 28.269 5.33003C27.7517 5.63003 27.2138 6.06504 26.4345 6.81879C25.3035 7.91004 25.1035 8.17628 24.8414 8.90378C24.6966 9.30128 24.6552 9.45504 24.4138 10.5613C24.2828 11.1575 24.0621 11.8063 23.9241 12.0013C23.7793 12.215 22.3931 13.0475 21.3448 13.5538C21.1931 13.6288 20.8621 13.8163 20.6069 13.9738C19.9517 14.3675 19.2345 14.6713 18.4 14.9C18.0069 15.0088 17.4897 15.1813 17.2414 15.29C16.531 15.5975 15.7172 15.9163 13.2069 16.8688C9.68966 18.2075 8.73104 18.6238 6.99311 19.565C5.71724 20.2625 5.16552 20.6188 4.37931 21.26C3.10345 22.2988 2.37242 23.2213 1.55862 24.8375C0.931038 26.09 0.744831 26.8325 0.744831 28.1563C0.737935 29.42 0.875866 30.1625 1.64828 33.1438C1.89656 34.1038 2.11035 35.1313 2.2069 35.8813C2.24828 36.1888 2.31035 36.5938 2.35173 36.7775C2.48966 37.4525 2.22069 38.15 1.4138 39.2375C0.468969 40.505 0.255176 40.8688 0.103452 41.4875C-0.137927 42.4513 0.0827624 43.4525 0.758624 44.3938C1.24138 45.065 2.28966 45.8975 3.27587 46.3888C5.36552 47.435 9 48.1325 13.7931 48.41C15.2207 48.4963 18.9172 48.5075 20.4138 48.4325C23.8138 48.2638 26.8759 47.8888 29.3448 47.3413C30.4759 47.0863 31.1724 46.8163 31.2759 46.58C31.3172 46.4938 31.2828 46.4525 31.0897 46.3475C30.6966 46.1338 29.8759 46.0325 28.2414 46.0025C26.8828 45.9763 25.6759 46.0438 24.8483 46.1938C23.5931 46.4263 18.3931 46.6063 16.7931 46.475C16.531 46.4563 15.8069 46.4188 15.2 46.4C13.4276 46.3438 12.1103 46.1638 9.49656 45.6275C8.06897 45.335 7.46207 45.1288 6.6 44.6413C5.90345 44.2475 5.2138 43.7 5.06897 43.4188C4.90345 43.1113 4.82759 42.8113 4.82759 42.44C4.82759 41.75 5.24828 41.345 6.11724 41.2025C6.55173 41.1313 6.92414 41.135 7.71035 41.225C8.89656 41.3563 10.5586 41.45 13.0552 41.525C14.9103 41.585 26.7793 41.5888 29.4138 41.5325C35.4621 41.405 38.9241 41.0713 40.9862 40.4263C41.6483 40.2163 42.3103 39.86 42.3655 39.6763C42.4552 39.365 42.1517 39.1363 41.4966 39.0313C41.2966 38.9975 40.5931 38.9375 39.931 38.8963C38.6276 38.8175 37.9172 38.7388 37.6828 38.6563C37.5655 38.615 37.5172 38.5288 37.4207 38.1988C37.2966 37.7788 36.8414 36.5638 36.1724 34.85C35.1103 32.1463 34.7862 30.3275 35.1655 29.3C35.5586 28.235 36.5862 26.8475 38.0759 25.37C38.4207 25.0288 38.8414 24.6013 39.0207 24.4175C39.2 24.2263 39.6069 23.9 39.9862 23.645C41.0138 22.955 41.3172 22.6775 41.5241 22.25C41.5655 22.1563 41.731 21.965 41.8897 21.8188C42.7793 21.0088 42.9931 20.4163 43.1172 18.4175C43.2069 16.8763 43.1931 16.7938 42.7241 15.4063C42.3448 14.2925 42.2552 13.8538 42.2966 13.3063C42.3724 12.2638 42.7379 11.9338 44.4552 11.36C45.1035 11.1425 45.4966 10.9775 45.8966 10.76C47.069 10.1188 47.8897 9.27129 47.9793 8.61878C48.069 8.00378 47.6552 7.69629 46.2414 7.29504C45.2483 7.01379 44.8138 6.84878 44.5655 6.64628C43.4 5.70878 42.1241 5.13879 40.5517 4.85004C40.3103 4.80504 39.8345 4.74878 39.4897 4.72628L38.8621 4.68128L38.7035 4.50503C38.4345 4.21253 38.3448 3.78878 38.2828 2.52503C38.2138 1.26128 38.1517 1.02503 37.8276 0.758783C37.5517 0.530033 37.0276 0.447534 36.4207 0.545034Z" fill="#55473A"/>
</svg>
