<svg width="48" height="49" viewBox="0 0 48 49" fill="none" xmlns="http://www.w3.org/2000/svg">
<path d="M38.8688 0.591484C38.2388 0.74263 37.4963 1.1182 37.08 1.48919C36.8363 1.70904 36.5025 2.16248 36.3975 2.41438C36.3488 2.53347 36.2513 2.90904 36.1838 3.24797C36.0263 4.01744 36.0075 4.5808 36.135 4.79148C36.2775 5.02507 36.435 5.10294 36.7688 5.10294C37.1513 5.10294 37.3125 5.01133 37.6875 4.6037C38.3738 3.84339 39.0263 3.59607 39.66 3.85255C40.35 4.12736 41.2575 5.08003 41.67 5.95484C42.0225 6.70141 42.12 7.26477 42.1275 8.53805C42.1313 9.3808 42.12 9.52278 42.0075 10.3243C41.67 12.6968 41.3138 14.0617 40.5675 15.8571C40.3725 16.3197 40.29 16.4663 39.9975 16.8419C39.4838 17.4968 38.5125 18.477 38.1938 18.6602C37.6688 18.9579 37.1813 18.99 36.2888 18.7747C34.9763 18.4632 33.9975 18.3304 32.6438 18.2892C31.4888 18.2526 30.5888 18.3121 28.44 18.5686C25.7625 18.8938 25.8863 18.8709 20.0438 19.9151C19.2 20.0663 18.3713 20.2129 18.2063 20.2403C18.0413 20.2724 17.7675 20.364 17.6025 20.4464C17.1788 20.6571 16.9238 20.7121 16.425 20.7075C16.095 20.7075 15.855 20.6709 15.4125 20.5609C14.4525 20.3228 13.9275 20.1579 13.65 20.0159C13.3613 19.8648 12.03 18.7747 11.2013 18.0006C10.5563 17.4052 10.2488 17.1762 9.7275 16.9151C8.7 16.3976 8.16375 15.9121 7.4025 14.8266C6.89625 14.1029 6.49125 13.5671 6.36 13.4434L6.23625 13.3289L6.0975 13.5579C5.98875 13.7411 5.94 13.7823 5.85 13.7823C5.78625 13.7823 5.70375 13.8235 5.65875 13.8785C5.57625 13.9793 5.57625 13.9976 5.60625 14.8312C5.64 15.8892 5.63625 16.0403 5.56875 16.2373C5.49 16.4663 5.3475 16.6083 4.96875 16.8235C4.09125 17.3274 3.71625 17.7854 3.15375 19.0495C2.83875 19.7548 2.64375 20.0755 2.23875 20.5747C2.04375 20.8129 1.845 21.106 1.785 21.2434C1.61625 21.6327 1.63125 21.7609 1.94625 22.5075C2.42625 23.648 2.63625 24.0098 2.96625 24.2709C3.2775 24.5182 3.48375 24.5686 3.99 24.5228C4.21875 24.4999 4.51875 24.4861 4.6575 24.4861C5.14125 24.4953 5.61 24.738 6.015 25.1915C6.14625 25.3426 6.28125 25.4617 6.31125 25.4617C6.42 25.4617 6.67875 25.7411 6.8625 26.0663C7.08375 26.451 7.485 27.4358 7.74375 28.2327L7.92375 28.7823L7.87875 30.2251C7.8525 31.0174 7.8075 32.2129 7.77375 32.8816C7.74375 33.5503 7.71375 34.5487 7.71 35.1029L7.70625 36.1106L7.395 37.0495C7.2225 37.5671 7.01625 38.1396 6.9375 38.3228C6.67875 38.9136 5.86125 40.3472 5.12625 41.5014C4.49625 42.4907 2.59875 44.8724 2.22375 45.1426C2.05125 45.2663 2.02125 45.2709 1.55625 45.2755C1.1325 45.2755 1.04625 45.2892 0.91125 45.3762C0.825 45.4312 0.66375 45.5182 0.555 45.5732C0.30375 45.6922 0.17625 45.8388 0.0749996 46.1319C-0.0637504 46.5213 0.00749958 46.9426 0.25875 47.2495C0.3525 47.364 0.42375 47.3961 0.7575 47.4648C1.2525 47.5701 2.17125 47.6113 2.60625 47.5426C2.985 47.4877 3.32625 47.309 3.675 46.9976C4.20375 46.5167 4.30125 46.448 4.59 46.3518C4.75125 46.2968 4.935 46.219 4.99875 46.1777C5.06625 46.1365 5.44125 45.7197 5.83125 45.2526C6.705 44.2083 7.125 43.7915 8.04375 43.0587C9.15375 42.1701 9.705 41.648 10.275 40.9426C10.5525 40.5991 10.8825 40.2281 11.0063 40.1182C11.3738 39.793 12.315 38.6205 12.4238 38.3503C12.5963 37.9289 13.0613 37.448 13.7663 36.9579C13.9838 36.8068 14.2425 36.6006 14.3363 36.4999C14.5613 36.2571 14.685 36.2297 14.865 36.3808C15.045 36.5274 15.225 36.5915 15.4763 36.5915C15.7275 36.5915 16.8863 36.7564 17.2688 36.848C17.9812 37.0129 18.15 37.2144 18.8325 38.7029C20.0663 41.4006 20.1338 41.5655 20.6213 43.0403C21.1988 44.7945 21.2625 45.0602 21.1238 45.2113C21.0863 45.2526 20.9325 45.335 20.7788 45.3991C20.4263 45.5503 20.2313 45.7151 20.1075 45.9762C19.9688 46.2602 19.9763 46.6312 20.13 47.1854C20.19 47.4052 20.2463 47.593 20.2575 47.6067C20.3025 47.6663 21.3863 47.8266 21.8813 47.8449C22.515 47.8724 22.9313 47.8129 23.0775 47.6709C23.25 47.506 23.3063 47.1854 23.3063 46.3472C23.3063 44.8312 23.145 43.0358 22.86 41.3457C22.5975 39.8067 22.0875 36.3579 22.0875 36.1243C22.0875 36.0144 22.11 36.0006 22.4888 35.8861C22.7063 35.8174 22.9613 35.7213 23.0513 35.6709C23.37 35.4922 24.4088 35.451 26.2875 35.538C27.69 35.6068 28.2225 35.6571 29.1 35.8083C30.2888 36.0144 30.3563 36.019 30.7088 35.909C31.0688 35.7945 31.1625 35.79 31.4138 35.8816C31.8263 36.0327 32.0625 36.335 32.2313 36.935C32.4675 37.7686 32.6325 38.1121 33.1275 38.8129C33.7163 39.6419 34.8038 41.4739 35.1413 42.2022C35.34 42.6327 35.325 43.0358 35.1 43.4388C34.9988 43.6174 34.2825 44.6113 33.6375 45.4724C33.225 46.022 33.1875 46.0449 32.7713 46.0037C32.445 45.9716 32.4413 45.9716 32.1488 46.1411C31.7663 46.3701 31.3425 46.8648 31.275 47.1716C31.1925 47.5426 31.35 48.2251 31.56 48.39C31.6313 48.4495 31.7588 48.477 32.01 48.4907C32.325 48.509 33.585 48.4449 34.275 48.3808L34.5563 48.3533L34.875 47.9548C35.0513 47.7396 35.5388 47.0755 35.955 46.4846C36.3713 45.8938 36.78 45.3442 36.8588 45.2709C37.0463 45.0968 37.3388 44.6663 37.5338 44.277C37.9125 43.5167 38.6663 41.5609 38.7188 41.1945C38.7338 41.1167 38.6813 40.6129 38.61 40.0724C38.43 38.7121 38.3663 38.0846 38.3363 37.393C38.3138 36.738 38.3325 36.6235 38.49 36.5732C38.5838 36.5457 39.7613 36.9671 41.19 37.535C41.5388 37.677 42.0188 37.8373 42.2588 37.8968C42.7838 38.0297 43.0575 38.1442 43.3838 38.3594C44.0625 38.8129 44.4975 39.39 44.8313 40.2693C45.0338 40.8052 45.5438 42.6098 45.69 43.3106C45.765 43.6678 45.8513 44.1945 45.8813 44.4831C45.9525 45.2113 46.11 45.5777 46.59 46.1732C46.7963 46.4297 46.8638 46.4846 46.9613 46.4846C47.1075 46.4846 47.3888 46.2648 47.6775 45.9213C47.94 45.6052 48 45.3762 48 44.6709V44.1579L47.7338 43.2922C46.7663 40.1594 46.545 39.3029 46.3313 37.8556C46.2788 37.5029 46.215 37.1365 46.1925 37.0495C46.1288 36.7884 45.87 36.0556 45.6338 35.4602C45.42 34.9289 45.4013 34.8968 45.21 34.764C44.9025 34.5533 44.5875 34.2144 44.3475 33.8251C44.2275 33.6327 44.0138 33.3625 43.8713 33.2205C43.5863 32.9365 43.4063 32.6388 43.35 32.3594C43.2938 32.0846 43.2188 31.9197 42.975 31.5487C42.8213 31.3151 42.75 31.1594 42.7313 31.0312C42.6375 30.3075 42.5963 29.8587 42.5438 29.0342C42.51 28.5167 42.4688 28.0312 42.45 27.9533C42.4238 27.8663 42.4238 27.7335 42.45 27.5823C42.4913 27.3029 42.435 26.9732 42.2775 26.593C42.0975 26.1625 41.7713 25.2602 41.6738 24.935C41.5988 24.6693 41.5763 24.4816 41.55 23.8724C41.5313 23.4693 41.5013 23.0984 41.4825 23.048C41.3963 22.851 41.3588 22.448 41.3963 22.1777C41.46 21.7701 41.6363 21.3671 42.3788 19.938C42.7838 19.1503 43.1513 18.39 43.2825 18.0464C43.5788 17.277 43.6425 17.1258 43.8863 16.6587C44.1075 16.2235 44.3138 15.6693 44.4413 15.1472C44.4863 14.964 44.5913 14.6388 44.6813 14.4235C44.8575 13.9976 44.94 13.6861 45.2213 12.3854C45.5213 10.9976 45.5438 10.8144 45.5438 9.47698C45.5438 8.17622 45.5063 7.78232 45.2813 6.70141C45.0525 5.61133 44.6475 4.47545 44.16 3.56858C43.8225 2.9411 43.725 2.81744 43.4625 2.69835C43.3013 2.62507 43.1738 2.51973 43.0163 2.33194C42.6225 1.86477 41.685 1.17316 40.9538 0.81591C40.605 0.646446 40.4738 0.614384 40.2375 0.641865C40.2075 0.646446 40.08 0.614384 39.9563 0.573162C39.6713 0.48156 39.2963 0.486141 38.8688 0.591484Z" fill="#55473A"/>
</svg>
